<svg xmlns="http://www.w3.org/2000/svg" width="359" height="65.287" viewBox="0 0 359 65.287">
  <g id="Group_2654" data-name="Group 2654" transform="translate(-606.527 -400.566)">
    <g id="Group_2651" data-name="Group 2651" transform="translate(606.527 400.568)">
      <g id="Group_2650" data-name="Group 2650">
        <path id="Path_44121" data-name="Path 44121" d="M629.971,465.851c-9.738,0-17.132-2.074-23.444-8.477l8.115-8.114c4.057,4.057,9.557,5.41,15.509,5.41,7.393,0,11.361-2.8,11.361-7.935a7.15,7.15,0,0,0-1.984-5.411c-1.262-1.172-2.7-1.8-5.68-2.254l-7.755-1.082c-5.5-.812-9.557-2.525-12.443-5.32-3.065-3.066-4.6-7.214-4.6-12.624,0-11.451,8.476-19.476,22.362-19.476,8.837,0,15.238,2.163,20.739,7.484l-7.935,7.844c-4.058-3.878-8.927-4.418-13.164-4.418-6.672,0-9.919,3.7-9.919,8.115a6.194,6.194,0,0,0,1.893,4.6,11.043,11.043,0,0,0,5.951,2.525l7.574,1.083c5.861.811,9.558,2.434,12.263,4.958,3.425,3.246,4.958,7.935,4.958,13.616C653.775,458.817,643.406,465.851,629.971,465.851Z" transform="translate(-606.527 -400.568)"/>
        <path id="Path_44122" data-name="Path 44122" d="M714.963,465.338V427.919L702.7,452.264h-8.477l-12.352-24.345v37.419H669.337v-64.2H681.69l16.772,34.716,16.681-34.716H727.5v64.2Z" transform="translate(-609.789 -400.598)"/>
        <path id="Path_44123" data-name="Path 44123" d="M785.469,465.338l-3.788-11.361H758.868l-3.877,11.361H741.917l23.354-64.2H775.1l23.444,64.2ZM770.5,420.074l-8.115,23.354h15.96Z" transform="translate(-613.559 -400.598)"/>
        <path id="Path_44124" data-name="Path 44124" d="M846.914,465.338l-12.532-25.607h-9.017v25.607H812.83v-64.2h25.157c13.075,0,20.83,8.927,20.83,19.657a17.287,17.287,0,0,1-11.722,16.861l14.337,27.682Zm-9.738-53.019H825.364v16.951h11.812c5.5,0,9.106-3.516,9.106-8.476S842.677,412.319,837.176,412.319Z" transform="translate(-617.241 -400.598)"/>
        <path id="Path_44125" data-name="Path 44125" d="M901.172,412.319v53.019H888.637V412.319H871.866V401.138h46.076v11.181Z" transform="translate(-620.307 -400.598)"/>
      </g>
    </g>
    <g id="Group_2653" data-name="Group 2653" transform="translate(929.307 400.566)">
      <g id="Group_2652" data-name="Group 2652">
        <path id="Path_44126" data-name="Path 44126" d="M960.56,465.853h-6.968l22.648-59.418H953.5V416.7h-6.511V400.566h36.22v5.869Z" transform="translate(-946.989 -400.566)"/>
      </g>
    </g>
  </g>
</svg>
